<?xml version="1.0" encoding="UTF-8" standalone="no"?>
<!-- Created with Inkscape (http://www.inkscape.org/) -->

<svg
   width="55.60865mm"
   height="25.400002mm"
   viewBox="0 0 317.76375 145.14288"
   version="1.1"
   id="svg5"
   xml:space="preserve"
   xmlns:inkscape="http://www.inkscape.org/namespaces/inkscape"
   xmlns:sodipodi="http://sodipodi.sourceforge.net/DTD/sodipodi-0.dtd"
   xmlns="http://www.w3.org/2000/svg"
   xmlns:svg="http://www.w3.org/2000/svg"><sodipodi:namedview
     id="namedview7"
     pagecolor="#ffffff"
     bordercolor="#999999"
     borderopacity="1"
     inkscape:showpageshadow="0"
     inkscape:pageopacity="0"
     inkscape:pagecheckerboard="0"
     inkscape:deskcolor="#d1d1d1"
     inkscape:document-units="mm"
     showgrid="false" /><defs
     id="defs2" /><g
     inkscape:label="Layer 1"
     inkscape:groupmode="layer"
     id="layer1"
     transform="translate(69.316408,-127.65588)"><g
       id="path132"
       inkscape:export-filename="new.svg"
       inkscape:export-xdpi="548.11621"
       inkscape:export-ydpi="548.11621"><path
         style="color:#000000;fill:currentColor;stroke-width:0.264583;-inkscape-stroke:none"
         d="m 15.850179,142.58896 c 15.345833,-2.85485 30.204833,-7.97189 45.508333,-11.07545 21.79902,-4.42384 44.500268,-4.69107 66.264898,-0.10319 21.15079,4.44765 43.0821,15.29556 63.98154,20.80683 18.53406,4.8895 38.76939,6.90298 56.71079,0.79375 V 127.65588 H -69.184258 v 7.23636 a 158.80556,158.80556 0 0 0 85.034437,7.69672 z"
         id="path343" /><path
         style="color:#000000;opacity:1;fill:#00b400;stroke:none;stroke-opacity:1;-inkscape-stroke:none"
         d="m -69.316406,127.6559 v 7.32847 l 0.08594,0.0313 c 27.133252,10.28872 56.565799,12.95272 85.105469,7.70313 15.358666,-2.85724 30.217693,-7.97493 45.509766,-11.07617 21.782472,-4.42048 44.465511,-4.68735 66.210931,-0.10352 21.1264,4.44252 43.05587,15.29028 63.97461,20.80664 18.54835,4.89327 38.8086,6.91288 56.78711,0.79102 l 0.0899,-0.0313 V 127.6559 Z m 0.263672,0 H 248.18359 v 25.25426 c -17.88232,6.05987 -38.05571,4.05735 -56.54492,-0.82032 -20.8801,-5.50617 -42.81314,-16.35582 -63.98828,-20.80859 -21.78379,-4.59192 -44.502834,-4.32367 -66.318359,0.10352 -15.314896,3.10587 -30.17289,8.22176 -45.505859,11.07421 -28.462945,5.23548 -57.813897,2.58334 -84.878906,-7.66211 z"
         id="path345"
         sodipodi:nodetypes="cccccccccccccccccccc" /></g></g></svg>
